<svg width="1444" height="1439" viewBox="0 0 1444 1439" fill="none" xmlns="http://www.w3.org/2000/svg">
<g clip-path="url(#clip0_26_259)">
<path d="M1272.18 249.831C1290.03 267.764 1298.5 288.88 1297.21 313.772C1296.42 328.939 1290.96 342.479 1282.97 355.226C1266.16 382.067 1249.56 409.044 1232.8 435.917C1225.72 447.266 1223.46 459.339 1226.92 472.322C1227.7 475.249 1228.97 478.059 1230.13 480.871C1236.93 497.343 1244.11 513.672 1250.51 530.299C1256.78 546.557 1268.01 556.445 1284.88 560.326C1315.45 567.362 1345.95 574.692 1376.54 581.636C1403.57 587.774 1423.84 602.47 1435.82 627.83C1440.9 638.589 1443.17 650.034 1443.16 661.962C1443.12 700.011 1443.24 738.06 1443.12 776.108C1443.01 814.579 1418.89 846.073 1381.65 855.385C1349.64 863.391 1317.4 870.491 1285.26 877.98C1284.37 878.187 1283.45 878.262 1282.16 878.457C1281.98 876.679 1281.69 875.122 1281.7 873.566C1281.98 798.591 1259.98 730.22 1220.23 667.311C1179.22 602.413 1124.63 551.418 1059.36 511.67C1002.6 477.107 941.446 453.574 876.703 439.162C845.796 432.282 814.51 428.012 783.015 424.994C770.911 423.834 758.922 421.446 746.814 420.349C706.391 416.688 666.823 421.328 628.338 434.202C565.404 455.255 514.922 493.226 476.585 547.471C475.795 548.59 474.965 549.681 473.493 551.683C473.493 549.396 473.235 548.127 473.529 547.005C492.957 473.046 524.205 404.806 571.709 344.561C613.873 291.089 664.601 248.027 726.276 218.594C766.874 199.22 809.511 187.297 854.554 185.114C868.321 184.447 882.154 185.035 895.953 185.275C898.146 185.313 900.415 186.338 902.482 187.275C906.944 189.298 911.207 191.776 915.713 193.685C931.231 200.26 946.995 206.28 962.332 213.247C978.881 220.764 994.367 219.921 1009.74 210.21C1036.68 193.187 1063.74 176.333 1090.87 159.606C1118.8 142.386 1147.42 141.277 1176.08 157.51C1182.9 161.376 1189.07 166.781 1194.7 172.337C1220.57 197.884 1246.14 223.734 1272.18 249.831Z" fill="url(#paint0_linear_26_259)"/>
<path d="M962.236 919.31C942.472 981.947 914.067 1039.53 874.182 1091.14C831.767 1146.03 780.285 1189.95 717.418 1219.76C669.3 1242.58 618.727 1254.81 565.265 1254.05C561.136 1253.99 557.836 1252.95 554.313 1250.54C548.171 1246.33 541.593 1242.57 534.774 1239.6C516.747 1231.76 498.431 1224.58 480.347 1216.86C463.112 1209.5 445.453 1207.58 427.556 1213.2C419.612 1215.69 411.856 1219.43 404.724 1223.77C375.906 1241.33 347.46 1259.5 318.638 1277.05C312.95 1280.51 306.405 1283.2 299.905 1284.56C281.815 1288.33 266.108 1282.83 252.995 1269.99C242.438 1259.65 232.096 1249.09 221.659 1238.63C204.264 1221.19 186.888 1203.73 169.466 1186.32C161.452 1178.31 156.041 1168.93 153.937 1157.72C151.338 1143.86 154.404 1131.19 161.764 1119.36C176.261 1096.05 190.707 1072.71 205.163 1049.38C209.364 1042.6 213.733 1035.92 217.667 1028.98C230.827 1005.79 231.987 981.878 221.645 957.3C214.006 939.144 206.476 920.942 199.048 902.699C188.987 877.99 171.351 861.545 145.551 854.99C115.837 847.44 85.8832 840.838 56.0307 833.835C51.4734 832.766 46.8939 831.791 42.34 830.707C16.8689 824.649 0.848433 804.652 0.776521 778.428C0.668223 738.972 0.664625 699.516 0.779448 660.061C0.855482 633.945 16.3923 614.11 41.6472 608.05C75.1042 600.022 108.648 592.357 142.115 584.368C148.646 582.809 154.995 580.48 162.005 578.328C162.52 584.261 163.018 589.986 163.514 595.711C171.023 682.274 206.105 756.961 261.628 822.553C312.526 882.681 375.163 927.159 446.667 959.415C498.866 982.962 553.364 998.731 609.962 1007.12C625.931 1009.49 642.03 1010.96 658.049 1013.01C667.8 1014.25 677.478 1016.12 687.245 1017.17C767.531 1025.85 840.004 1005.86 904.437 957.065C928.539 938.814 949.06 916.992 966.522 892.284C967.584 890.78 968.739 889.342 971.094 888.341C968.193 898.483 965.293 908.626 962.236 919.31Z" fill="url(#paint1_linear_26_259)"/>
<path d="M188.672 574.971C188.536 571.98 188.404 569.635 188.348 567.289C188.174 559.933 189.499 553.337 193.539 546.649C198.33 538.719 200.978 529.496 204.627 520.864C209.926 508.332 215.079 495.732 220.668 483.33C232.451 457.177 231.277 431.759 216.37 407.296C198.91 378.645 181.094 350.213 163.38 321.719C159.141 314.9 155.372 307.901 153.991 299.882C150.903 281.941 155.762 266.34 168.396 253.382C182.807 238.603 197.503 224.103 212.079 209.485C225.33 196.196 238.543 182.869 251.851 169.638C271.35 150.254 295.648 147.205 319.122 161.606C347.69 179.132 376.075 196.959 404.478 214.754C415.975 221.957 428.173 226.819 441.82 228.022C454.471 229.138 466.578 227.247 478.246 222.465C497.959 214.385 517.696 206.354 537.267 197.941C562.835 186.95 577.963 167.26 584.149 140.277C591.646 107.579 599.23 74.9005 606.885 42.2392C611.74 21.5281 624.115 7.6752 644.762 1.90748C648.747 0.794345 653.078 0.555932 657.251 0.5469C699.892 0.454685 742.538 0.832415 785.175 0.370774C811.567 0.0850057 845.451 16.8553 858.269 51.6377C862.463 63.0153 864.745 75.1244 867.579 86.9765C872.815 108.879 877.822 130.838 882.894 152.78C883.251 154.323 883.355 155.925 883.632 157.893C881.404 158.021 879.575 158.236 877.75 158.216C805.973 157.415 740.005 177.542 678.886 214.378C614.036 253.462 562.454 306.243 521.845 369.952C479.043 437.102 451.64 510.319 437.956 588.67C433.924 611.756 431.588 635.141 428.507 658.394C426.843 670.949 424.852 683.477 423.699 696.081C420.521 730.816 423.997 765.033 433.326 798.573C452.544 867.671 491.681 922.842 549.755 964.621C551.237 965.687 552.591 966.931 553.573 969.094C543.734 966.244 533.845 963.555 524.064 960.518C466.12 942.527 412.063 916.578 362.921 880.749C307.527 840.362 262.428 790.804 230.248 729.893C210.002 691.57 196.657 650.954 191.06 607.918C189.67 597.23 189.463 586.388 188.672 574.971Z" fill="url(#paint2_linear_26_259)"/>
<path d="M811.242 1192.23C874.169 1141.98 921.309 1079.92 955.737 1007.88C980.995 955.035 998.115 899.59 1007.52 841.799C1010.6 822.825 1012.42 803.644 1014.92 784.571C1016.23 774.567 1018.06 764.626 1019.15 754.601C1028.14 671.182 1006.8 596.451 954.785 530.663C937.5 508.803 917.179 490.102 894.464 474.004C893.318 473.191 892.184 472.353 891.112 471.447C890.816 471.197 890.761 470.66 890.244 469.391C897.278 471.238 903.829 472.784 910.278 474.679C977.957 494.563 1040.49 524.714 1095.97 568.755C1147.95 610.013 1190.01 659.517 1219.44 719.35C1238.9 758.926 1251.06 800.7 1254.45 844.718C1255.74 861.523 1254.76 878.507 1254.71 895.409C1254.7 897.235 1254.29 899.173 1253.59 900.865C1245.66 920.176 1237.83 939.529 1229.59 958.708C1223.05 973.943 1224.05 988.378 1232.74 1002.38C1249.81 1029.9 1266.92 1057.39 1283.94 1084.94C1300.12 1111.11 1301.96 1138.2 1288.73 1166.12C1284.77 1174.48 1279.13 1181.68 1272.63 1188.2C1246.3 1214.62 1219.98 1241.06 1193.59 1267.42C1175.24 1285.74 1153.12 1294 1127.26 1291.75C1113.93 1290.58 1101.84 1285.77 1090.54 1278.7C1063.91 1262.05 1037.1 1245.68 1010.63 1228.77C994.568 1218.52 978.636 1217.51 961.354 1225.65C946.541 1232.63 931.315 1238.84 915.943 1244.48C898.28 1250.98 887.906 1263.02 883.821 1281.3C876.912 1312.21 869.593 1343.03 862.471 1373.89C854.549 1408.22 829.002 1432.24 794.532 1437.59C790.849 1438.16 787.066 1438.25 783.328 1438.26C765.754 1438.33 748.171 1438.63 730.611 1438.14C722.524 1437.91 714.484 1436.04 705.922 1434.84C705.253 1437.79 702.801 1438.42 699.442 1438.38C685.385 1438.19 671.324 1438.36 657.266 1438.28C634.721 1438.14 614.914 1423.45 608.433 1401.66C605.695 1392.45 603.742 1383 601.563 1373.63C595.613 1348.04 589.784 1322.42 583.783 1296.84C582.558 1291.62 580.797 1286.52 579.041 1280.55C666.209 1277.06 742.681 1245.68 811.242 1192.23Z" fill="url(#paint3_linear_26_259)"/>
</g>
<defs>
<linearGradient id="paint0_linear_26_259" x1="1212.95" y1="304.562" x2="775.383" y2="32.8025" gradientUnits="userSpaceOnUse">
<stop stop-color="#787878"/>
<stop offset="1" stop-color="#B1B1B1"/>
</linearGradient>
<linearGradient id="paint1_linear_26_259" x1="263.916" y1="1193.5" x2="855.184" y2="842.843" gradientUnits="userSpaceOnUse">
<stop offset="0.088581" stop-color="#787878"/>
<stop offset="1" stop-color="#B1B1B1"/>
</linearGradient>
<linearGradient id="paint2_linear_26_259" x1="570.487" y1="195.412" x2="360.043" y2="970.189" gradientUnits="userSpaceOnUse">
<stop stop-color="#FFA564"/>
<stop offset="1" stop-color="#DC8554"/>
</linearGradient>
<linearGradient id="paint3_linear_26_259" x1="989.538" y1="664.496" x2="775.932" y2="1437.68" gradientUnits="userSpaceOnUse">
<stop stop-color="#FFA564"/>
<stop offset="1" stop-color="#DC8554"/>
</linearGradient>
<clipPath id="clip0_26_259">
<rect width="1439" height="1443.26" fill="white" transform="translate(1443.36) rotate(90)"/>
</clipPath>
</defs>
</svg>
