<svg width="8267" height="1933" viewBox="0 0 8267 1933" fill="none" xmlns="http://www.w3.org/2000/svg">
<rect width="8266.6" height="1933" fill="white"/>
<g clip-path="url(#clip0_21_244)">
<path d="M1620.18 512.831C1638.03 530.764 1646.5 551.88 1645.21 576.772C1644.42 591.939 1638.96 605.479 1630.97 618.226C1614.16 645.067 1597.56 672.044 1580.8 698.917C1573.72 710.266 1571.46 722.339 1574.92 735.322C1575.7 738.249 1576.97 741.059 1578.13 743.871C1584.93 760.343 1592.11 776.672 1598.51 793.299C1604.78 809.557 1616.01 819.445 1632.88 823.326C1663.45 830.362 1693.95 837.692 1724.54 844.636C1751.57 850.774 1771.84 865.47 1783.82 890.83C1788.9 901.589 1791.17 913.034 1791.16 924.962C1791.12 963.011 1791.24 1001.06 1791.12 1039.11C1791.01 1077.58 1766.89 1109.07 1729.65 1118.39C1697.64 1126.39 1665.4 1133.49 1633.26 1140.98C1632.37 1141.19 1631.45 1141.26 1630.16 1141.46C1629.98 1139.68 1629.69 1138.12 1629.7 1136.57C1629.98 1061.59 1607.98 993.22 1568.23 930.311C1527.22 865.413 1472.63 814.418 1407.36 774.67C1350.6 740.107 1289.45 716.574 1224.7 702.162C1193.8 695.282 1162.51 691.012 1131.01 687.994C1118.91 686.834 1106.92 684.446 1094.81 683.349C1054.39 679.688 1014.82 684.328 976.338 697.202C913.404 718.255 862.922 756.226 824.585 810.471C823.795 811.59 822.965 812.681 821.493 814.683C821.493 812.396 821.235 811.127 821.529 810.005C840.957 736.046 872.205 667.806 919.709 607.561C961.873 554.089 1012.6 511.027 1074.28 481.594C1114.87 462.22 1157.51 450.297 1202.55 448.114C1216.32 447.447 1230.15 448.035 1243.95 448.275C1246.15 448.313 1248.41 449.338 1250.48 450.275C1254.94 452.298 1259.21 454.776 1263.71 456.685C1279.23 463.26 1294.99 469.28 1310.33 476.247C1326.88 483.764 1342.37 482.921 1357.74 473.21C1384.68 456.187 1411.74 439.333 1438.87 422.606C1466.8 405.386 1495.42 404.277 1524.08 420.51C1530.9 424.376 1537.07 429.781 1542.7 435.337C1568.57 460.884 1594.14 486.734 1620.18 512.831Z" fill="url(#paint0_linear_21_244)"/>
<path d="M1310.24 1182.31C1290.47 1244.95 1262.07 1302.53 1222.18 1354.14C1179.77 1409.03 1128.28 1452.95 1065.42 1482.76C1017.3 1505.58 966.727 1517.81 913.265 1517.05C909.136 1516.99 905.836 1515.95 902.313 1513.54C896.171 1509.33 889.593 1505.57 882.774 1502.6C864.747 1494.76 846.431 1487.58 828.347 1479.86C811.112 1472.5 793.453 1470.58 775.556 1476.2C767.612 1478.69 759.856 1482.43 752.724 1486.77C723.906 1504.33 695.46 1522.5 666.638 1540.05C660.95 1543.51 654.405 1546.2 647.905 1547.56C629.815 1551.33 614.108 1545.83 600.995 1532.99C590.438 1522.65 580.096 1512.09 569.659 1501.63C552.264 1484.19 534.888 1466.73 517.466 1449.32C509.452 1441.31 504.041 1431.93 501.937 1420.72C499.338 1406.86 502.404 1394.19 509.764 1382.36C524.261 1359.05 538.707 1335.71 553.163 1312.38C557.364 1305.6 561.733 1298.92 565.667 1291.98C578.827 1268.79 579.987 1244.88 569.645 1220.3C562.006 1202.14 554.476 1183.94 547.048 1165.7C536.987 1140.99 519.351 1124.54 493.551 1117.99C463.837 1110.44 433.883 1103.84 404.031 1096.84C399.473 1095.77 394.894 1094.79 390.34 1093.71C364.869 1087.65 348.848 1067.65 348.777 1041.43C348.668 1001.97 348.665 962.516 348.779 923.061C348.855 896.945 364.392 877.11 389.647 871.05C423.104 863.022 456.648 855.357 490.115 847.368C496.646 845.809 502.995 843.48 510.005 841.328C510.52 847.261 511.018 852.986 511.514 858.711C519.023 945.274 554.105 1019.96 609.628 1085.55C660.526 1145.68 723.163 1190.16 794.667 1222.41C846.866 1245.96 901.364 1261.73 957.962 1270.12C973.931 1272.49 990.03 1273.96 1006.05 1276.01C1015.8 1277.25 1025.48 1279.12 1035.25 1280.17C1115.53 1288.85 1188 1268.86 1252.44 1220.06C1276.54 1201.81 1297.06 1179.99 1314.52 1155.28C1315.58 1153.78 1316.74 1152.34 1319.09 1151.34C1316.19 1161.48 1313.29 1171.63 1310.24 1182.31Z" fill="url(#paint1_linear_21_244)"/>
<path d="M536.672 837.971C536.536 834.98 536.404 832.635 536.348 830.289C536.174 822.933 537.499 816.337 541.539 809.649C546.33 801.719 548.978 792.496 552.627 783.864C557.926 771.332 563.079 758.732 568.668 746.33C580.451 720.177 579.277 694.759 564.37 670.296C546.91 641.645 529.094 613.213 511.38 584.719C507.141 577.9 503.372 570.901 501.991 562.882C498.903 544.941 503.762 529.34 516.396 516.382C530.807 501.603 545.503 487.103 560.079 472.485C573.33 459.196 586.543 445.869 599.851 432.638C619.35 413.254 643.648 410.205 667.122 424.606C695.69 442.132 724.075 459.959 752.478 477.754C763.975 484.957 776.173 489.819 789.82 491.022C802.471 492.138 814.578 490.247 826.246 485.465C845.959 477.385 865.696 469.354 885.267 460.941C910.835 449.95 925.963 430.26 932.149 403.277C939.646 370.579 947.23 337.9 954.885 305.239C959.74 284.528 972.115 270.675 992.762 264.907C996.747 263.794 1001.08 263.556 1005.25 263.547C1047.89 263.455 1090.54 263.832 1133.17 263.371C1159.57 263.085 1193.45 279.855 1206.27 314.638C1210.46 326.015 1212.74 338.124 1215.58 349.976C1220.82 371.879 1225.82 393.838 1230.89 415.78C1231.25 417.323 1231.36 418.925 1231.63 420.893C1229.4 421.021 1227.58 421.236 1225.75 421.216C1153.97 420.415 1088 440.542 1026.89 477.378C962.036 516.462 910.454 569.243 869.845 632.952C827.043 700.102 799.64 773.319 785.956 851.67C781.924 874.756 779.588 898.141 776.507 921.394C774.843 933.949 772.852 946.477 771.699 959.081C768.521 993.816 771.997 1028.03 781.326 1061.57C800.544 1130.67 839.681 1185.84 897.755 1227.62C899.237 1228.69 900.591 1229.93 901.573 1232.09C891.734 1229.24 881.845 1226.56 872.064 1223.52C814.12 1205.53 760.063 1179.58 710.921 1143.75C655.527 1103.36 610.428 1053.8 578.248 992.893C558.002 954.57 544.657 913.954 539.06 870.918C537.67 860.23 537.463 849.388 536.672 837.971Z" fill="url(#paint2_linear_21_244)"/>
<path d="M1159.24 1455.23C1222.17 1404.98 1269.31 1342.92 1303.74 1270.88C1328.99 1218.03 1346.12 1162.59 1355.52 1104.8C1358.6 1085.82 1360.42 1066.64 1362.92 1047.57C1364.23 1037.57 1366.06 1027.63 1367.15 1017.6C1376.14 934.182 1354.8 859.451 1302.79 793.663C1285.5 771.803 1265.18 753.102 1242.46 737.004C1241.32 736.191 1240.18 735.353 1239.11 734.447C1238.82 734.197 1238.76 733.66 1238.24 732.391C1245.28 734.238 1251.83 735.784 1258.28 737.679C1325.96 757.563 1388.49 787.714 1443.97 831.755C1495.95 873.013 1538.01 922.517 1567.44 982.35C1586.9 1021.93 1599.06 1063.7 1602.45 1107.72C1603.74 1124.52 1602.76 1141.51 1602.71 1158.41C1602.7 1160.23 1602.29 1162.17 1601.59 1163.87C1593.66 1183.18 1585.83 1202.53 1577.59 1221.71C1571.05 1236.94 1572.05 1251.38 1580.74 1265.38C1597.81 1292.9 1614.92 1320.39 1631.94 1347.94C1648.12 1374.11 1649.96 1401.2 1636.73 1429.12C1632.77 1437.48 1627.13 1444.68 1620.63 1451.2C1594.3 1477.62 1567.98 1504.06 1541.59 1530.42C1523.24 1548.74 1501.12 1557 1475.26 1554.75C1461.93 1553.58 1449.84 1548.77 1438.54 1541.7C1411.91 1525.05 1385.1 1508.68 1358.63 1491.77C1342.57 1481.52 1326.64 1480.51 1309.35 1488.65C1294.54 1495.63 1279.32 1501.84 1263.94 1507.48C1246.28 1513.98 1235.91 1526.02 1231.82 1544.3C1224.91 1575.21 1217.59 1606.03 1210.47 1636.89C1202.55 1671.22 1177 1695.24 1142.53 1700.59C1138.85 1701.16 1135.07 1701.25 1131.33 1701.26C1113.75 1701.33 1096.17 1701.63 1078.61 1701.14C1070.52 1700.91 1062.48 1699.04 1053.92 1697.84C1053.25 1700.79 1050.8 1701.42 1047.44 1701.38C1033.38 1701.19 1019.32 1701.36 1005.27 1701.28C982.721 1701.14 962.914 1686.45 956.433 1664.66C953.695 1655.45 951.742 1646 949.563 1636.63C943.613 1611.04 937.784 1585.42 931.783 1559.84C930.558 1554.62 928.797 1549.52 927.041 1543.55C1014.21 1540.06 1090.68 1508.68 1159.24 1455.23Z" fill="url(#paint3_linear_21_244)"/>
</g>
<path d="M2472.61 1573.25C2468.11 1573.25 2464.81 1571.3 2462.71 1567.4L2382.61 1427.9C2380.51 1424.6 2378.56 1421.3 2376.76 1418C2375.26 1414.7 2373.61 1411.25 2371.81 1407.65L2370.01 1408.1C2370.61 1412 2370.91 1416.05 2370.91 1420.25C2370.91 1424.45 2370.91 1428.65 2370.91 1432.85V1652C2370.91 1658.6 2364.91 1661.9 2352.91 1661.9H2349.76C2337.76 1661.9 2331.76 1658.6 2331.76 1652V1355C2331.76 1348.4 2337.76 1345.1 2349.76 1345.1H2365.96C2371.36 1345.1 2375.56 1345.85 2378.56 1347.35C2381.56 1348.85 2383.66 1350.8 2384.86 1353.2L2469.91 1500.8C2472.31 1504.7 2474.56 1509.2 2476.66 1514.3C2478.76 1519.4 2480.41 1524.35 2481.61 1529.15C2483.11 1524.05 2485.21 1518.8 2487.91 1513.4C2490.91 1507.7 2493.46 1503.05 2495.56 1499.45L2578.36 1353.2C2579.86 1350.8 2581.96 1348.85 2584.66 1347.35C2587.66 1345.85 2591.86 1345.1 2597.26 1345.1H2612.11C2624.11 1345.1 2630.11 1348.4 2630.11 1355V1652C2630.11 1658.6 2624.11 1661.9 2612.11 1661.9H2608.96C2596.96 1661.9 2590.96 1658.6 2590.96 1652V1435.55C2590.96 1431.35 2590.96 1427.15 2590.96 1422.95C2591.26 1418.75 2591.56 1414.7 2591.86 1410.8L2590.06 1410.35C2588.26 1413.95 2586.46 1417.4 2584.66 1420.7C2583.16 1424 2581.36 1427.3 2579.26 1430.6L2500.51 1567.4C2498.41 1571.3 2495.11 1573.25 2490.61 1573.25H2472.61ZM2723.16 1661.9C2711.16 1661.9 2705.16 1658.6 2705.16 1652V1355C2705.16 1348.4 2711.16 1345.1 2723.16 1345.1H2726.76C2738.76 1345.1 2744.76 1348.4 2744.76 1355V1652C2744.76 1658.6 2738.76 1661.9 2726.76 1661.9H2723.16ZM2889.75 1663.7C2870.55 1663.7 2853.45 1661.45 2838.45 1656.95C2823.45 1652.45 2812.35 1647.5 2805.15 1642.1C2799.45 1637.9 2796.6 1634.15 2796.6 1630.85C2796.6 1628.45 2797.5 1625.3 2799.3 1621.4C2801.4 1617.5 2803.65 1614.05 2806.05 1611.05C2808.75 1608.05 2810.85 1606.55 2812.35 1606.55C2813.25 1606.55 2814.45 1607 2815.95 1607.9C2817.75 1608.5 2819.7 1609.55 2821.8 1611.05C2827.8 1614.35 2836.5 1618.25 2847.9 1622.75C2859.3 1627.25 2873.25 1629.5 2889.75 1629.5C2901.15 1629.5 2911.2 1627.4 2919.9 1623.2C2928.9 1618.7 2935.95 1612.4 2941.05 1604.3C2946.15 1596.2 2948.7 1586.9 2948.7 1576.4C2948.7 1564.4 2945.4 1554.8 2938.8 1547.6C2932.5 1540.1 2924.1 1533.95 2913.6 1529.15C2903.4 1524.35 2892.45 1519.7 2880.75 1515.2C2871.15 1511.6 2861.7 1507.7 2852.4 1503.5C2843.1 1499 2834.7 1493.6 2827.2 1487.3C2819.7 1481 2813.7 1473.05 2809.2 1463.45C2804.7 1453.55 2802.45 1441.25 2802.45 1426.55C2802.45 1410.35 2806.5 1395.95 2814.6 1383.35C2823 1370.75 2834.7 1361 2849.7 1354.1C2864.7 1346.9 2882.25 1343.3 2902.35 1343.3C2908.65 1343.3 2915.7 1343.9 2923.5 1345.1C2931.6 1346.3 2939.4 1348.1 2946.9 1350.5C2954.7 1352.9 2961 1355.75 2965.8 1359.05C2971.8 1362.65 2974.8 1366.55 2974.8 1370.75C2974.8 1372.85 2973.9 1375.85 2972.1 1379.75C2970.3 1383.65 2968.2 1387.1 2965.8 1390.1C2963.7 1393.1 2961.9 1394.6 2960.4 1394.6C2959.2 1394.6 2957.55 1394.15 2955.45 1393.25C2953.65 1392.05 2951.25 1390.7 2948.25 1389.2C2943.45 1386.8 2937.3 1384.25 2929.8 1381.55C2922.3 1378.85 2912.85 1377.5 2901.45 1377.5C2890.35 1377.5 2880.3 1379.45 2871.3 1383.35C2862.6 1387.25 2855.7 1392.95 2850.6 1400.45C2845.8 1407.95 2843.4 1417.25 2843.4 1428.35C2843.4 1439.15 2846.25 1447.7 2851.95 1454C2857.65 1460.3 2865.15 1465.55 2874.45 1469.75C2883.75 1473.65 2893.8 1477.7 2904.6 1481.9C2914.5 1485.8 2924.4 1490.15 2934.3 1494.95C2944.5 1499.45 2953.8 1505.15 2962.2 1512.05C2970.6 1518.95 2977.2 1527.65 2982 1538.15C2987.1 1548.35 2989.65 1561.1 2989.65 1576.4C2989.65 1589.9 2987.25 1602.05 2982.45 1612.85C2977.95 1623.65 2971.2 1632.8 2962.2 1640.3C2953.5 1647.8 2943 1653.65 2930.7 1657.85C2918.7 1661.75 2905.05 1663.7 2889.75 1663.7ZM3217.91 1663.7C3206.81 1663.7 3195.41 1662.05 3183.71 1658.75C3172.01 1655.45 3161.06 1650.2 3150.86 1643C3140.96 1635.5 3132.86 1625.75 3126.56 1613.75C3120.56 1601.75 3117.56 1587.05 3117.56 1569.65C3117.56 1553.75 3120.41 1540.1 3126.11 1528.7C3131.81 1517.3 3139.01 1508.15 3147.71 1501.25C3156.41 1494.05 3165.26 1489.25 3174.26 1486.85V1485.05C3161.66 1479.95 3150.71 1471.85 3141.41 1460.75C3132.41 1449.35 3127.91 1435.4 3127.91 1418.9C3127.91 1401.8 3131.81 1387.7 3139.61 1376.6C3147.71 1365.5 3158.51 1357.25 3172.01 1351.85C3185.81 1346.15 3201.41 1343.3 3218.81 1343.3C3223.91 1343.3 3229.31 1343.75 3235.01 1344.65C3241.01 1345.25 3246.11 1346.6 3250.31 1348.7C3254.81 1350.5 3257.06 1353.5 3257.06 1357.7C3257.06 1358.3 3256.76 1360.4 3256.16 1364C3255.56 1367.6 3254.51 1371.2 3253.01 1374.8C3251.51 1378.1 3249.56 1379.75 3247.16 1379.75C3245.36 1379.75 3242.06 1379.15 3237.26 1377.95C3232.76 1376.45 3226.91 1375.7 3219.71 1375.7C3204.11 1375.7 3192.41 1378.55 3184.61 1384.25C3177.11 1389.65 3172.01 1396.1 3169.31 1403.6C3166.91 1410.8 3165.71 1417.25 3165.71 1422.95C3165.71 1430.45 3167.66 1438.4 3171.56 1446.8C3175.76 1455.2 3182.21 1462.4 3190.91 1468.4C3199.91 1474.4 3211.61 1477.4 3226.01 1477.4H3279.11L3284.51 1430.15C3285.11 1423.55 3289.91 1420.25 3298.91 1420.25H3303.41C3312.41 1420.25 3316.91 1423.55 3316.91 1430.15V1477.4H3354.71C3360.71 1477.4 3363.71 1481.9 3363.71 1490.9V1496.3C3363.71 1505.3 3360.71 1509.8 3354.71 1509.8H3316.91V1598C3316.91 1611.5 3319.31 1620.5 3324.11 1625C3328.91 1629.2 3334.61 1631.3 3341.21 1631.3C3347.81 1631.3 3352.16 1631 3354.26 1630.4C3356.36 1629.5 3358.46 1629.05 3360.56 1629.05C3362.66 1629.05 3364.31 1630.55 3365.51 1633.55C3367.01 1636.55 3368.06 1639.85 3368.66 1643.45C3369.56 1646.75 3370.01 1649 3370.01 1650.2C3370.01 1654.1 3368.06 1657.1 3364.16 1659.2C3360.56 1661 3356.21 1662.2 3351.11 1662.8C3346.01 1663.4 3341.36 1663.7 3337.16 1663.7C3330.26 1663.7 3322.46 1662.5 3313.76 1660.1C3305.06 1657.4 3297.56 1652.15 3291.26 1644.35C3283.76 1648.85 3273.86 1653.2 3261.56 1657.4C3249.26 1661.6 3234.71 1663.7 3217.91 1663.7ZM3221.51 1631.3C3234.71 1631.3 3247.31 1628.9 3259.31 1624.1C3271.31 1619 3280.46 1614.5 3286.76 1610.6L3282.71 1625.9C3280.31 1619 3279.11 1610.9 3279.11 1601.6V1509.8H3224.21C3204.11 1509.8 3187.76 1514 3175.16 1522.4C3162.86 1530.5 3156.71 1546.1 3156.71 1569.2C3156.71 1585.4 3160.16 1598 3167.06 1607C3174.26 1616 3182.81 1622.3 3192.71 1625.9C3202.91 1629.5 3212.51 1631.3 3221.51 1631.3ZM3490.72 1661.9C3477.82 1661.9 3471.37 1659.35 3471.37 1654.25C3471.37 1653.35 3471.52 1652.45 3471.82 1651.55C3472.12 1650.35 3472.42 1649.15 3472.72 1647.95L3579.37 1352.3C3580.87 1347.5 3586.87 1345.1 3597.37 1345.1H3610.42C3620.92 1345.1 3626.92 1347.5 3628.42 1352.3L3735.07 1648.4C3735.97 1650.5 3736.42 1652.45 3736.42 1654.25C3736.42 1659.35 3729.97 1661.9 3717.07 1661.9H3713.47C3708.97 1661.9 3705.07 1661.45 3701.77 1660.55C3698.47 1659.35 3696.37 1657.4 3695.47 1654.7L3668.92 1580.9H3536.62L3510.97 1654.7C3510.07 1657.4 3507.97 1659.35 3504.67 1660.55C3501.37 1661.45 3497.47 1661.9 3492.97 1661.9H3490.72ZM3549.22 1546.7H3656.77L3609.52 1412.6C3608.32 1408.4 3607.27 1404.05 3606.37 1399.55C3605.47 1395.05 3604.72 1390.7 3604.12 1386.5H3603.22C3602.32 1390.7 3601.27 1395.05 3600.07 1399.55C3599.17 1404.05 3597.97 1408.4 3596.47 1412.6L3549.22 1546.7ZM3867.05 1663.7C3830.75 1663.7 3803.15 1654.4 3784.25 1635.8C3765.65 1616.9 3756.35 1585.7 3756.35 1542.2C3756.35 1518.8 3759.35 1499.45 3765.35 1484.15C3771.65 1468.55 3779.9 1456.4 3790.1 1447.7C3800.6 1438.7 3812.15 1432.4 3824.75 1428.8C3837.35 1424.9 3850.1 1422.95 3863 1422.95C3874.7 1422.95 3885.65 1424 3895.85 1426.1C3906.05 1427.9 3914.3 1430.45 3920.6 1433.75C3927.2 1436.75 3930.5 1440.05 3930.5 1443.65C3930.5 1446.05 3929.6 1449.2 3927.8 1453.1C3926.3 1457 3924.5 1460.45 3922.4 1463.45C3920.3 1466.45 3918.2 1467.95 3916.1 1467.95C3915.8 1467.95 3915.2 1467.8 3914.3 1467.5C3913.7 1467.2 3912.65 1466.75 3911.15 1466.15C3907.25 1464.35 3901.1 1462.1 3892.7 1459.4C3884.6 1456.7 3874.4 1455.35 3862.1 1455.35C3842.3 1455.35 3826.4 1461.95 3814.4 1475.15C3802.7 1488.05 3796.85 1510.1 3796.85 1541.3C3796.85 1572.8 3802.1 1595.75 3812.6 1610.15C3823.1 1624.25 3841.1 1631.3 3866.6 1631.3C3879.2 1631.3 3889.85 1629.95 3898.55 1627.25C3907.25 1624.25 3913.55 1621.7 3917.45 1619.6C3918.95 1619 3920 1618.55 3920.6 1618.25C3921.5 1617.95 3922.1 1617.8 3922.4 1617.8C3924.5 1617.8 3926.75 1619.3 3929.15 1622.3C3931.55 1625.3 3933.5 1628.6 3935 1632.2C3936.8 1635.8 3937.7 1638.65 3937.7 1640.75C3937.7 1643.45 3935.9 1646.15 3932.3 1648.85C3928.7 1651.55 3923.6 1654.1 3917 1656.5C3910.7 1658.6 3903.2 1660.25 3894.5 1661.45C3886.1 1662.95 3876.95 1663.7 3867.05 1663.7ZM4076.46 1663.7C4040.16 1663.7 4012.56 1654.4 3993.66 1635.8C3975.06 1616.9 3965.76 1585.7 3965.76 1542.2C3965.76 1518.8 3968.76 1499.45 3974.76 1484.15C3981.06 1468.55 3989.31 1456.4 3999.51 1447.7C4010.01 1438.7 4021.56 1432.4 4034.16 1428.8C4046.76 1424.9 4059.51 1422.95 4072.41 1422.95C4084.11 1422.95 4095.06 1424 4105.26 1426.1C4115.46 1427.9 4123.71 1430.45 4130.01 1433.75C4136.61 1436.75 4139.91 1440.05 4139.91 1443.65C4139.91 1446.05 4139.01 1449.2 4137.21 1453.1C4135.71 1457 4133.91 1460.45 4131.81 1463.45C4129.71 1466.45 4127.61 1467.95 4125.51 1467.95C4125.21 1467.95 4124.61 1467.8 4123.71 1467.5C4123.11 1467.2 4122.06 1466.75 4120.56 1466.15C4116.66 1464.35 4110.51 1462.1 4102.11 1459.4C4094.01 1456.7 4083.81 1455.35 4071.51 1455.35C4051.71 1455.35 4035.81 1461.95 4023.81 1475.15C4012.11 1488.05 4006.26 1510.1 4006.26 1541.3C4006.26 1572.8 4011.51 1595.75 4022.01 1610.15C4032.51 1624.25 4050.51 1631.3 4076.01 1631.3C4088.61 1631.3 4099.26 1629.95 4107.96 1627.25C4116.66 1624.25 4122.96 1621.7 4126.86 1619.6C4128.36 1619 4129.41 1618.55 4130.01 1618.25C4130.91 1617.95 4131.51 1617.8 4131.81 1617.8C4133.91 1617.8 4136.16 1619.3 4138.56 1622.3C4140.96 1625.3 4142.91 1628.6 4144.41 1632.2C4146.21 1635.8 4147.11 1638.65 4147.11 1640.75C4147.11 1643.45 4145.31 1646.15 4141.71 1648.85C4138.11 1651.55 4133.01 1654.1 4126.41 1656.5C4120.11 1658.6 4112.61 1660.25 4103.91 1661.45C4095.51 1662.95 4086.36 1663.7 4076.46 1663.7ZM4280.92 1663.7C4247.02 1663.7 4221.07 1653.5 4203.07 1633.1C4185.37 1612.7 4176.52 1583.15 4176.52 1544.45C4176.52 1505.45 4185.52 1475.45 4203.52 1454.45C4221.52 1433.45 4247.32 1422.95 4280.92 1422.95C4313.92 1422.95 4339.12 1433.45 4356.52 1454.45C4374.22 1475.15 4383.07 1505.15 4383.07 1544.45C4383.07 1583.45 4374.37 1613.15 4356.97 1633.55C4339.87 1653.65 4314.52 1663.7 4280.92 1663.7ZM4279.57 1631.3C4301.77 1631.3 4317.97 1624.25 4328.17 1610.15C4338.67 1595.75 4343.92 1573.55 4343.92 1543.55C4343.92 1513.55 4338.67 1491.35 4328.17 1476.95C4317.97 1462.55 4301.77 1455.35 4279.57 1455.35C4257.67 1455.35 4241.62 1462.55 4231.42 1476.95C4221.22 1491.05 4216.12 1513.25 4216.12 1543.55C4216.12 1573.55 4221.22 1595.75 4231.42 1610.15C4241.62 1624.25 4257.67 1631.3 4279.57 1631.3ZM4506.07 1663.7C4483.27 1663.7 4465.27 1657.25 4452.07 1644.35C4439.17 1631.45 4432.72 1613.6 4432.72 1590.8V1434.65C4432.72 1428.05 4438.72 1424.75 4450.72 1424.75H4452.52C4464.52 1424.75 4470.52 1428.05 4470.52 1434.65V1587.2C4470.52 1601 4474.42 1611.8 4482.22 1619.6C4490.32 1627.1 4501.72 1630.85 4516.42 1630.85C4526.62 1630.85 4536.67 1628 4546.57 1622.3C4556.77 1616.6 4565.62 1608.95 4573.12 1599.35V1434.65C4573.12 1428.05 4579.12 1424.75 4591.12 1424.75H4592.92C4604.92 1424.75 4610.92 1428.05 4610.92 1434.65V1594.4C4610.92 1606.7 4611.37 1616.9 4612.27 1625C4613.17 1633.1 4614.07 1639.25 4614.97 1643.45C4615.87 1647.65 4616.32 1650.2 4616.32 1651.1C4616.32 1653.2 4615.27 1655 4613.17 1656.5C4611.37 1657.7 4609.12 1658.75 4606.42 1659.65C4603.72 1660.25 4601.02 1660.7 4598.32 1661C4595.62 1661.3 4593.52 1661.45 4592.02 1661.45C4588.42 1661.45 4585.57 1659.8 4583.47 1656.5C4581.67 1652.9 4580.17 1648.7 4578.97 1643.9C4578.07 1638.8 4577.17 1634.15 4576.27 1629.95C4566.97 1640.45 4556.02 1648.7 4543.42 1654.7C4531.12 1660.7 4518.67 1663.7 4506.07 1663.7ZM4697.16 1661.9C4685.16 1661.9 4679.16 1658.6 4679.16 1652V1494.05C4679.16 1481.75 4678.71 1471.55 4677.81 1463.45C4676.91 1455.35 4676.01 1449.2 4675.11 1445C4674.21 1440.5 4673.76 1437.95 4673.76 1437.35C4673.76 1435.25 4674.66 1433.6 4676.46 1432.4C4678.56 1430.9 4680.96 1429.85 4683.66 1429.25C4686.36 1428.35 4689.06 1427.75 4691.76 1427.45C4694.46 1427.15 4696.56 1427 4698.06 1427C4701.66 1427 4704.36 1428.65 4706.16 1431.95C4708.26 1435.25 4709.76 1439.3 4710.66 1444.1C4711.86 1448.6 4712.91 1452.8 4713.81 1456.7C4723.41 1446.2 4734.36 1437.95 4746.66 1431.95C4758.96 1425.95 4771.41 1422.95 4784.01 1422.95C4807.11 1422.95 4825.11 1429.4 4838.01 1442.3C4850.91 1455.2 4857.36 1473.05 4857.36 1495.85V1652C4857.36 1658.6 4851.36 1661.9 4839.36 1661.9H4837.56C4825.56 1661.9 4819.56 1658.6 4819.56 1652V1499.45C4819.56 1485.65 4815.51 1475 4807.41 1467.5C4799.61 1459.7 4788.36 1455.8 4773.66 1455.8C4763.46 1455.8 4753.26 1458.65 4743.06 1464.35C4733.16 1470.05 4724.46 1477.7 4716.96 1487.3V1652C4716.96 1658.6 4710.96 1661.9 4698.96 1661.9H4697.16ZM4988.14 1663.7C4982.44 1663.7 4976.29 1662.8 4969.69 1661C4963.09 1659.5 4956.79 1656.65 4950.79 1652.45C4944.79 1647.95 4939.84 1641.65 4935.94 1633.55C4932.04 1625.15 4930.09 1614.5 4930.09 1601.6V1458.05H4907.59C4901.59 1458.05 4898.59 1453.55 4898.59 1444.55V1439.15C4898.59 1430.15 4901.59 1425.65 4907.59 1425.65H4930.09L4935.49 1378.4C4936.09 1371.8 4940.89 1368.5 4949.89 1368.5H4954.39C4963.39 1368.5 4967.89 1371.8 4967.89 1378.4V1425.65H5005.69C5011.69 1425.65 5014.69 1430.15 5014.69 1439.15V1444.55C5014.69 1453.55 5011.69 1458.05 5005.69 1458.05H4967.89V1598C4967.89 1611.5 4970.29 1620.5 4975.09 1625C4979.89 1629.2 4985.59 1631.3 4992.19 1631.3C4998.79 1631.3 5003.14 1631 5005.24 1630.4C5007.34 1629.5 5009.44 1629.05 5011.54 1629.05C5013.64 1629.05 5015.29 1630.55 5016.49 1633.55C5017.99 1636.55 5019.04 1639.85 5019.64 1643.45C5020.54 1646.75 5020.99 1649 5020.99 1650.2C5020.99 1654.1 5019.04 1657.1 5015.14 1659.2C5011.54 1661 5007.19 1662.2 5002.09 1662.8C4996.99 1663.4 4992.34 1663.7 4988.14 1663.7ZM5085.7 1661.9C5073.7 1661.9 5067.7 1658.6 5067.7 1652V1434.65C5067.7 1428.05 5073.7 1424.75 5085.7 1424.75H5087.5C5099.5 1424.75 5105.5 1428.05 5105.5 1434.65V1652C5105.5 1658.6 5099.5 1661.9 5087.5 1661.9H5085.7ZM5086.6 1393.25C5079.4 1393.25 5074.3 1392.35 5071.3 1390.55C5068.3 1388.75 5066.8 1386.35 5066.8 1383.35V1356.35C5066.8 1353.35 5068.3 1350.95 5071.3 1349.15C5074.3 1347.35 5079.4 1346.45 5086.6 1346.45C5093.8 1346.45 5098.9 1347.35 5101.9 1349.15C5104.9 1350.65 5106.4 1353.05 5106.4 1356.35V1383.35C5106.4 1386.35 5104.9 1388.75 5101.9 1390.55C5098.9 1392.35 5093.8 1393.25 5086.6 1393.25ZM5193.54 1661.9C5181.54 1661.9 5175.54 1658.6 5175.54 1652V1494.05C5175.54 1481.75 5175.09 1471.55 5174.19 1463.45C5173.29 1455.35 5172.39 1449.2 5171.49 1445C5170.59 1440.5 5170.14 1437.95 5170.14 1437.35C5170.14 1435.25 5171.04 1433.6 5172.84 1432.4C5174.94 1430.9 5177.34 1429.85 5180.04 1429.25C5182.74 1428.35 5185.44 1427.75 5188.14 1427.45C5190.84 1427.15 5192.94 1427 5194.44 1427C5198.04 1427 5200.74 1428.65 5202.54 1431.95C5204.64 1435.25 5206.14 1439.3 5207.04 1444.1C5208.24 1448.6 5209.29 1452.8 5210.19 1456.7C5219.79 1446.2 5230.74 1437.95 5243.04 1431.95C5255.34 1425.95 5267.79 1422.95 5280.39 1422.95C5303.49 1422.95 5321.49 1429.4 5334.39 1442.3C5347.29 1455.2 5353.74 1473.05 5353.74 1495.85V1652C5353.74 1658.6 5347.74 1661.9 5335.74 1661.9H5333.94C5321.94 1661.9 5315.94 1658.6 5315.94 1652V1499.45C5315.94 1485.65 5311.89 1475 5303.79 1467.5C5295.99 1459.7 5284.74 1455.8 5270.04 1455.8C5259.84 1455.8 5249.64 1458.65 5239.44 1464.35C5229.54 1470.05 5220.84 1477.7 5213.34 1487.3V1652C5213.34 1658.6 5207.34 1661.9 5195.34 1661.9H5193.54ZM5492.18 1756.4C5474.48 1756.4 5458.73 1754.45 5444.93 1750.55C5431.13 1746.95 5420.33 1740.8 5412.53 1732.1C5404.73 1723.4 5400.83 1711.85 5400.83 1697.45C5400.83 1684.25 5404.58 1672.7 5412.08 1662.8C5419.58 1652.9 5428.88 1645.55 5439.98 1640.75L5440.43 1639.85C5435.33 1635.65 5431.13 1630.55 5427.83 1624.55C5424.83 1618.55 5423.33 1611.35 5423.33 1602.95C5423.33 1593.35 5425.43 1585.1 5429.63 1578.2C5433.83 1571 5439.83 1564.85 5447.63 1559.75C5434.73 1553.45 5424.98 1544.75 5418.38 1533.65C5412.08 1522.25 5408.93 1509.8 5408.93 1496.3C5408.93 1482.5 5412.23 1470.2 5418.83 1459.4C5425.73 1448.3 5435.78 1439.45 5448.98 1432.85C5462.18 1426.25 5478.38 1422.95 5497.58 1422.95C5502.38 1422.95 5507.03 1423.25 5511.53 1423.85C5516.03 1424.15 5520.23 1424.75 5524.13 1425.65H5606.03C5612.03 1425.65 5615.03 1430.15 5615.03 1439.15V1444.55C5615.03 1453.55 5612.03 1458.05 5606.03 1458.05C5602.43 1458.05 5597.03 1457.75 5589.83 1457.15C5582.63 1456.55 5576.48 1455.8 5571.38 1454.9L5570.93 1455.8C5576.93 1462.4 5580.83 1468.85 5582.63 1475.15C5584.73 1481.45 5585.78 1488.5 5585.78 1496.3C5585.78 1510.1 5582.33 1522.55 5575.43 1533.65C5568.83 1544.75 5558.93 1553.6 5545.73 1560.2C5532.83 1566.8 5516.63 1570.1 5497.13 1570.1C5484.23 1570.1 5474.18 1572.2 5466.98 1576.4C5460.08 1580.6 5456.63 1587.65 5456.63 1597.55C5456.63 1606.55 5460.08 1613.15 5466.98 1617.35C5473.88 1621.25 5482.58 1623.95 5493.08 1625.45C5503.88 1626.65 5515.13 1628 5526.83 1629.5C5540.33 1631 5552.48 1633.85 5563.28 1638.05C5574.38 1641.95 5583.08 1647.95 5589.38 1656.05C5595.98 1663.85 5599.28 1674.65 5599.28 1688.45C5599.28 1702.85 5595.23 1715 5587.13 1724.9C5579.33 1735.1 5567.48 1742.9 5551.58 1748.3C5535.68 1753.7 5515.88 1756.4 5492.18 1756.4ZM5497.13 1725.35C5519.63 1725.35 5536.28 1722.5 5547.08 1716.8C5557.88 1711.4 5563.28 1702.7 5563.28 1690.7C5563.28 1681.7 5559.68 1675.1 5552.48 1670.9C5545.58 1666.7 5536.73 1663.7 5525.93 1661.9C5515.13 1660.4 5504.03 1659.2 5492.63 1658.3C5481.23 1657.1 5471.18 1655.15 5462.48 1652.45C5455.28 1655.75 5448.98 1660.4 5443.58 1666.4C5438.48 1672.4 5435.93 1680.35 5435.93 1690.25C5435.93 1702.85 5440.58 1711.85 5449.88 1717.25C5459.48 1722.65 5475.23 1725.35 5497.13 1725.35ZM5497.13 1538.6C5511.53 1538.6 5523.83 1535.6 5534.03 1529.6C5544.53 1523.6 5549.78 1512.65 5549.78 1496.75C5549.78 1480.55 5544.53 1469.45 5534.03 1463.45C5523.83 1457.45 5511.53 1454.45 5497.13 1454.45C5482.73 1454.45 5470.43 1457.45 5460.23 1463.45C5450.03 1469.45 5444.93 1480.55 5444.93 1496.75C5444.93 1512.65 5450.03 1523.6 5460.23 1529.6C5470.43 1535.6 5482.73 1538.6 5497.13 1538.6ZM5823.89 1663.7C5804.69 1663.7 5787.59 1661.45 5772.59 1656.95C5757.59 1652.45 5746.49 1647.5 5739.29 1642.1C5733.59 1637.9 5730.74 1634.15 5730.74 1630.85C5730.74 1628.45 5731.64 1625.3 5733.44 1621.4C5735.54 1617.5 5737.79 1614.05 5740.19 1611.05C5742.89 1608.05 5744.99 1606.55 5746.49 1606.55C5747.39 1606.55 5748.59 1607 5750.09 1607.9C5751.89 1608.5 5753.84 1609.55 5755.94 1611.05C5761.94 1614.35 5770.64 1618.25 5782.04 1622.75C5793.44 1627.25 5807.39 1629.5 5823.89 1629.5C5835.29 1629.5 5845.34 1627.4 5854.04 1623.2C5863.04 1618.7 5870.09 1612.4 5875.19 1604.3C5880.29 1596.2 5882.84 1586.9 5882.84 1576.4C5882.84 1564.4 5879.54 1554.8 5872.94 1547.6C5866.64 1540.1 5858.24 1533.95 5847.74 1529.15C5837.54 1524.35 5826.59 1519.7 5814.89 1515.2C5805.29 1511.6 5795.84 1507.7 5786.54 1503.5C5777.24 1499 5768.84 1493.6 5761.34 1487.3C5753.84 1481 5747.84 1473.05 5743.34 1463.45C5738.84 1453.55 5736.59 1441.25 5736.59 1426.55C5736.59 1410.35 5740.64 1395.95 5748.74 1383.35C5757.14 1370.75 5768.84 1361 5783.84 1354.1C5798.84 1346.9 5816.39 1343.3 5836.49 1343.3C5842.79 1343.3 5849.84 1343.9 5857.64 1345.1C5865.74 1346.3 5873.54 1348.1 5881.04 1350.5C5888.84 1352.9 5895.14 1355.75 5899.94 1359.05C5905.94 1362.65 5908.94 1366.55 5908.94 1370.75C5908.94 1372.85 5908.04 1375.85 5906.24 1379.75C5904.44 1383.65 5902.34 1387.1 5899.94 1390.1C5897.84 1393.1 5896.04 1394.6 5894.54 1394.6C5893.34 1394.6 5891.69 1394.15 5889.59 1393.25C5887.79 1392.05 5885.39 1390.7 5882.39 1389.2C5877.59 1386.8 5871.44 1384.25 5863.94 1381.55C5856.44 1378.85 5846.99 1377.5 5835.59 1377.5C5824.49 1377.5 5814.44 1379.45 5805.44 1383.35C5796.74 1387.25 5789.84 1392.95 5784.74 1400.45C5779.94 1407.95 5777.54 1417.25 5777.54 1428.35C5777.54 1439.15 5780.39 1447.7 5786.09 1454C5791.79 1460.3 5799.29 1465.55 5808.59 1469.75C5817.89 1473.65 5827.94 1477.7 5838.74 1481.9C5848.64 1485.8 5858.54 1490.15 5868.44 1494.95C5878.64 1499.45 5887.94 1505.15 5896.34 1512.05C5904.74 1518.95 5911.34 1527.65 5916.14 1538.15C5921.24 1548.35 5923.79 1561.1 5923.79 1576.4C5923.79 1589.9 5921.39 1602.05 5916.59 1612.85C5912.09 1623.65 5905.34 1632.8 5896.34 1640.3C5887.64 1647.8 5877.14 1653.65 5864.84 1657.85C5852.84 1661.75 5839.19 1663.7 5823.89 1663.7ZM5988.7 1754.6C5978.8 1754.6 5973.85 1752.2 5973.85 1747.4C5973.85 1746.8 5973.85 1746.05 5973.85 1745.15C5974.15 1744.55 5974.9 1742.75 5976.1 1739.75L6019.75 1634V1663.25L5935.15 1438.25C5934.85 1437.65 5934.55 1436.75 5934.25 1435.55C5933.95 1434.35 5933.8 1433.3 5933.8 1432.4C5933.8 1427.3 5940.25 1424.75 5953.15 1424.75H5956.75C5961.25 1424.75 5965.15 1425.35 5968.45 1426.55C5971.75 1427.45 5973.85 1429.25 5974.75 1431.95L6020.65 1553.9C6023.35 1561.4 6025.9 1569.05 6028.3 1576.85C6030.7 1584.65 6032.95 1592.15 6035.05 1599.35H6035.95C6038.35 1592.45 6040.75 1584.95 6043.15 1576.85C6045.55 1568.45 6048.1 1560.8 6050.8 1553.9L6095.8 1431.95C6096.7 1429.25 6098.8 1427.45 6102.1 1426.55C6105.4 1425.35 6109.45 1424.75 6114.25 1424.75H6115.6C6127.6 1424.75 6133.6 1427.3 6133.6 1432.4C6133.6 1433.9 6133.15 1436 6132.25 1438.7L6016.6 1745.15C6015.4 1748.45 6012.85 1750.85 6008.95 1752.35C6005.35 1753.85 6000.85 1754.6 5995.45 1754.6H5988.7ZM6222.45 1665.05C6208.95 1665.05 6196.8 1663.4 6186 1660.1C6175.2 1656.8 6166.65 1652.9 6160.35 1648.4C6154.05 1643.9 6150.9 1640 6150.9 1636.7C6150.9 1634.9 6151.8 1632.2 6153.6 1628.6C6155.4 1625 6157.5 1621.7 6159.9 1618.7C6162.3 1615.7 6164.55 1614.2 6166.65 1614.2C6167.85 1614.2 6170.55 1615.7 6174.75 1618.7C6178.95 1621.7 6184.8 1624.7 6192.3 1627.7C6200.1 1630.7 6209.25 1632.2 6219.75 1632.2C6249.15 1632.2 6263.85 1621.1 6263.85 1598.9C6263.85 1586.9 6259.5 1578.2 6250.8 1572.8C6242.4 1567.1 6231.75 1562.15 6218.85 1557.95C6208.35 1554.35 6198.3 1550.15 6188.7 1545.35C6179.1 1540.25 6171.3 1533.2 6165.3 1524.2C6159.3 1515.2 6156.3 1503.05 6156.3 1487.75C6156.3 1475.15 6159.45 1463.9 6165.75 1454C6172.35 1444.1 6181.2 1436.45 6192.3 1431.05C6203.7 1425.35 6216.6 1422.5 6231 1422.5C6241.2 1422.5 6250.8 1423.4 6259.8 1425.2C6268.8 1427 6276.15 1429.4 6281.85 1432.4C6287.55 1435.4 6290.4 1438.55 6290.4 1441.85C6290.4 1444.25 6289.5 1447.4 6287.7 1451.3C6286.2 1455.2 6284.4 1458.65 6282.3 1461.65C6280.2 1464.65 6278.1 1466.15 6276 1466.15C6274.8 1466.15 6270.75 1464.2 6263.85 1460.3C6256.95 1456.4 6247.35 1454.45 6235.05 1454.45C6223.95 1454.45 6214.5 1457.15 6206.7 1462.55C6198.9 1467.65 6195 1475 6195 1484.6C6195 1493 6197.4 1499.75 6202.2 1504.85C6207 1509.65 6216.3 1514.3 6230.1 1518.8C6243.9 1523.3 6256.2 1528.7 6267 1535C6277.8 1541 6286.35 1548.8 6292.65 1558.4C6298.95 1567.7 6302.1 1579.85 6302.1 1594.85C6302.1 1608.35 6298.5 1620.35 6291.3 1630.85C6284.4 1641.35 6274.95 1649.75 6262.95 1656.05C6250.95 1662.05 6237.45 1665.05 6222.45 1665.05ZM6416.44 1663.7C6410.74 1663.7 6404.59 1662.8 6397.99 1661C6391.39 1659.5 6385.09 1656.65 6379.09 1652.45C6373.09 1647.95 6368.14 1641.65 6364.24 1633.55C6360.34 1625.15 6358.39 1614.5 6358.39 1601.6V1458.05H6335.89C6329.89 1458.05 6326.89 1453.55 6326.89 1444.55V1439.15C6326.89 1430.15 6329.89 1425.65 6335.89 1425.65H6358.39L6363.79 1378.4C6364.39 1371.8 6369.19 1368.5 6378.19 1368.5H6382.69C6391.69 1368.5 6396.19 1371.8 6396.19 1378.4V1425.65H6433.99C6439.99 1425.65 6442.99 1430.15 6442.99 1439.15V1444.55C6442.99 1453.55 6439.99 1458.05 6433.99 1458.05H6396.19V1598C6396.19 1611.5 6398.59 1620.5 6403.39 1625C6408.19 1629.2 6413.89 1631.3 6420.49 1631.3C6427.09 1631.3 6431.44 1631 6433.54 1630.4C6435.64 1629.5 6437.74 1629.05 6439.84 1629.05C6441.94 1629.05 6443.59 1630.55 6444.79 1633.55C6446.29 1636.55 6447.34 1639.85 6447.94 1643.45C6448.84 1646.75 6449.29 1649 6449.29 1650.2C6449.29 1654.1 6447.34 1657.1 6443.44 1659.2C6439.84 1661 6435.49 1662.2 6430.39 1662.8C6425.29 1663.4 6420.64 1663.7 6416.44 1663.7ZM6590.05 1663.7C6552.85 1663.7 6525.1 1653.95 6506.8 1634.45C6488.8 1614.95 6479.8 1585.1 6479.8 1544.9C6479.8 1518.2 6483.7 1495.85 6491.5 1477.85C6499.6 1459.85 6511.45 1446.2 6527.05 1436.9C6542.65 1427.6 6561.85 1422.95 6584.65 1422.95C6605.35 1422.95 6622.45 1427.45 6635.95 1436.45C6649.75 1445.45 6660.1 1458.65 6667 1476.05C6673.9 1493.45 6677.35 1514.9 6677.35 1540.4C6677.35 1542.2 6676.45 1544.6 6674.65 1547.6C6673.15 1550.3 6671.2 1552.85 6668.8 1555.25C6666.4 1557.65 6664.3 1558.85 6662.5 1558.85H6520.3C6522.1 1583.75 6528.55 1602.05 6539.65 1613.75C6550.75 1625.45 6567.4 1631.3 6589.6 1631.3C6602.8 1631.3 6613.9 1629.8 6622.9 1626.8C6632.2 1623.5 6639.55 1620.35 6644.95 1617.35C6650.35 1614.05 6653.8 1612.4 6655.3 1612.4C6657.4 1612.4 6659.65 1613.9 6662.05 1616.9C6664.45 1619.9 6666.55 1623.2 6668.35 1626.8C6670.15 1630.4 6671.05 1633.1 6671.05 1634.9C6671.05 1637.6 6668.95 1640.6 6664.75 1643.9C6660.55 1647.2 6654.7 1650.35 6647.2 1653.35C6640 1656.35 6631.45 1658.9 6621.55 1661C6611.95 1662.8 6601.45 1663.7 6590.05 1663.7ZM6520.3 1526.45H6637.3C6637.3 1502.75 6632.8 1485.05 6623.8 1473.35C6614.8 1461.35 6601.3 1455.35 6583.3 1455.35C6563.8 1455.35 6548.8 1461.35 6538.3 1473.35C6527.8 1485.05 6521.8 1502.75 6520.3 1526.45ZM6744.87 1661.9C6732.87 1661.9 6726.87 1658.6 6726.87 1652V1494.05C6726.87 1481.75 6726.42 1471.55 6725.52 1463.45C6724.62 1455.35 6723.72 1449.2 6722.82 1445C6721.92 1440.5 6721.47 1437.95 6721.47 1437.35C6721.47 1435.25 6722.37 1433.6 6724.17 1432.4C6726.27 1430.9 6728.67 1429.85 6731.37 1429.25C6734.07 1428.35 6736.77 1427.75 6739.47 1427.45C6742.17 1427.15 6744.27 1427 6745.77 1427C6749.37 1427 6752.07 1428.65 6753.87 1431.95C6755.97 1435.25 6757.47 1439.3 6758.37 1444.1C6759.57 1448.6 6760.62 1452.8 6761.52 1456.7C6769.02 1448 6778.62 1440.2 6790.32 1433.3C6802.32 1426.4 6815.52 1422.95 6829.92 1422.95C6837.42 1422.95 6845.22 1424 6853.32 1426.1C6861.72 1427.9 6869.52 1431.5 6876.72 1436.9C6884.22 1442.3 6890.07 1450.1 6894.27 1460.3C6902.97 1450.1 6913.47 1441.4 6925.77 1434.2C6938.37 1426.7 6951.72 1422.95 6965.82 1422.95C6973.02 1422.95 6980.67 1424 6988.77 1426.1C6996.87 1427.9 7004.52 1431.35 7011.72 1436.45C7019.22 1441.55 7025.22 1448.9 7029.72 1458.5C7034.22 1468.1 7036.47 1480.55 7036.47 1495.85V1652C7036.47 1658.6 7030.47 1661.9 7018.47 1661.9H7016.67C7004.67 1661.9 6998.67 1658.6 6998.67 1652V1499.45C6998.67 1486.25 6995.07 1475.75 6987.87 1467.95C6980.67 1459.85 6969.87 1455.8 6955.47 1455.8C6947.37 1455.8 6939.87 1457.45 6932.97 1460.75C6926.37 1464.05 6920.37 1467.95 6914.97 1472.45C6909.87 1476.65 6905.82 1480.55 6902.82 1484.15C6900.12 1487.75 6898.47 1489.85 6897.87 1490.45L6897.42 1475.15C6898.92 1478.45 6899.82 1482.05 6900.12 1485.95C6900.42 1489.55 6900.57 1493 6900.57 1496.3V1652C6900.57 1658.6 6894.57 1661.9 6882.57 1661.9H6880.77C6868.77 1661.9 6862.77 1658.6 6862.77 1652V1499.45C6862.77 1486.25 6859.17 1475.75 6851.97 1467.95C6844.77 1459.85 6833.97 1455.8 6819.57 1455.8C6811.47 1455.8 6803.97 1457.45 6797.07 1460.75C6790.47 1463.75 6784.62 1467.35 6779.52 1471.55C6774.72 1475.45 6770.97 1479.05 6768.27 1482.35C6765.87 1485.35 6764.67 1486.85 6764.67 1486.85V1652C6764.67 1658.6 6758.67 1661.9 6746.67 1661.9H6744.87ZM7150.17 1665.05C7136.67 1665.05 7124.52 1663.4 7113.72 1660.1C7102.92 1656.8 7094.37 1652.9 7088.07 1648.4C7081.77 1643.9 7078.62 1640 7078.62 1636.7C7078.62 1634.9 7079.52 1632.2 7081.32 1628.6C7083.12 1625 7085.22 1621.7 7087.62 1618.7C7090.02 1615.7 7092.27 1614.2 7094.37 1614.2C7095.57 1614.2 7098.27 1615.7 7102.47 1618.7C7106.67 1621.7 7112.52 1624.7 7120.02 1627.7C7127.82 1630.7 7136.97 1632.2 7147.47 1632.2C7176.87 1632.2 7191.57 1621.1 7191.57 1598.9C7191.57 1586.9 7187.22 1578.2 7178.52 1572.8C7170.12 1567.1 7159.47 1562.15 7146.57 1557.95C7136.07 1554.35 7126.02 1550.15 7116.42 1545.35C7106.82 1540.25 7099.02 1533.2 7093.02 1524.2C7087.02 1515.2 7084.02 1503.05 7084.02 1487.75C7084.02 1475.15 7087.17 1463.9 7093.47 1454C7100.07 1444.1 7108.92 1436.45 7120.02 1431.05C7131.42 1425.35 7144.32 1422.5 7158.72 1422.5C7168.92 1422.5 7178.52 1423.4 7187.52 1425.2C7196.52 1427 7203.87 1429.4 7209.57 1432.4C7215.27 1435.4 7218.12 1438.55 7218.12 1441.85C7218.12 1444.25 7217.22 1447.4 7215.42 1451.3C7213.92 1455.2 7212.12 1458.65 7210.02 1461.65C7207.92 1464.65 7205.82 1466.15 7203.72 1466.15C7202.52 1466.15 7198.47 1464.2 7191.57 1460.3C7184.67 1456.4 7175.07 1454.45 7162.77 1454.45C7151.67 1454.45 7142.22 1457.15 7134.42 1462.55C7126.62 1467.65 7122.72 1475 7122.72 1484.6C7122.72 1493 7125.12 1499.75 7129.92 1504.85C7134.72 1509.65 7144.02 1514.3 7157.82 1518.8C7171.62 1523.3 7183.92 1528.7 7194.72 1535C7205.52 1541 7214.07 1548.8 7220.37 1558.4C7226.67 1567.7 7229.82 1579.85 7229.82 1594.85C7229.82 1608.35 7226.22 1620.35 7219.02 1630.85C7212.12 1641.35 7202.67 1649.75 7190.67 1656.05C7178.67 1662.05 7165.17 1665.05 7150.17 1665.05Z" fill="#ACACAC"/>
<path d="M2020 473H1867V383H2269V473H2111V1083H2020V473ZM2616.34 869C2611.01 870.333 2603.34 871 2593.34 871H2438.34V1083H2347.34V383H2587.34C2651.34 383 2699.68 404.667 2732.34 448C2765.01 491.333 2781.34 546.333 2781.34 613C2781.34 645 2779.68 673.333 2776.34 698C2773.68 722.667 2766.34 748 2754.34 774C2743.01 799.333 2725.01 821 2700.34 839L2782.34 1083H2689.34L2616.34 869ZM2573.34 783C2608.01 783 2633.34 774 2649.34 756C2666.01 737.333 2676.34 716.667 2680.34 694C2684.34 670.667 2686.34 643.667 2686.34 613C2686.34 561 2675.34 525 2653.34 505C2632.01 484.333 2600.68 474 2559.34 474H2438.34V783H2573.34ZM3189.8 878H3005.8L2952.8 1083H2851.8L3036.8 383H3155.8L3350.8 1083H3244.8L3189.8 878ZM3027.8 783H3167.8L3095.8 533L3027.8 783ZM3439.14 382H3627.14C3702.47 382 3759.81 402.667 3799.14 444C3839.14 485.333 3859.14 540.333 3859.14 609V883C3859.14 1016.33 3788.47 1083 3647.14 1083H3439.14V382ZM3768.14 599C3768.14 555.667 3756.14 523.667 3732.14 503C3708.81 482.333 3677.14 472 3637.14 472H3530.14V1000H3631.14C3671.81 1000 3704.81 993 3730.14 979C3755.47 965 3768.14 936.333 3768.14 893V599ZM3984.06 383H4318.06V473H4075.06V670H4231.06L4204.06 758H4075.06V1001H4316.06V1083H3984.06V383Z" fill="#727272"/>
<path d="M4797.91 1060C4738.57 1082 4683.24 1093 4631.91 1093C4573.91 1093 4526.91 1077.67 4490.91 1047C4454.91 1016.33 4436.91 967.333 4436.91 900V579C4436.91 528.333 4443.91 490 4457.91 464C4472.57 438 4494.57 416 4523.91 398C4553.24 381.333 4589.24 373 4631.91 373C4683.91 373 4730.91 384 4772.91 406L4746.91 484C4714.91 472 4680.57 466 4643.91 466C4611.91 466 4584.57 474.667 4561.91 492C4539.24 508.667 4527.91 534.667 4527.91 570V898C4527.91 966.667 4566.91 1001 4644.91 1001C4684.91 1001 4730.91 992.667 4782.91 976L4797.91 1060ZM5285.55 898C5285.55 965.333 5264.88 1015 5223.55 1047C5182.88 1078.33 5133.88 1094 5076.55 1094C5040.55 1094 5006.55 1087.67 4974.55 1075C4942.55 1061.67 4916.21 1040.33 4895.55 1011C4875.55 981.667 4865.55 944 4865.55 898V576C4865.55 507.333 4884.21 455.333 4921.55 420C4959.55 384.667 5011.55 367 5077.55 367C5143.55 367 5194.55 385.667 5230.55 423C5267.21 460.333 5285.55 511.667 5285.55 577V898ZM5194.55 597C5194.55 553 5185.21 519.667 5166.55 497C5148.55 474.333 5118.21 463 5075.55 463C5032.88 463 5002.21 474.333 4983.55 497C4965.55 519 4956.55 552 4956.55 596V885C4956.55 922.333 4966.88 951.333 4987.55 972C5008.88 992.667 5038.21 1003 5075.55 1003C5111.55 1003 5140.21 992.667 5161.55 972C5183.55 950.667 5194.55 921.333 5194.55 884V597ZM5520.38 567V1083H5429.38V383H5520.38L5829.38 897V383H5921.38V1083H5829.38L5520.38 567ZM6154.77 473H6001.77V383H6403.77V473H6245.77V1083H6154.77V473ZM6751.11 869C6745.78 870.333 6738.11 871 6728.11 871H6573.11V1083H6482.11V383H6722.11C6786.11 383 6834.44 404.667 6867.11 448C6899.78 491.333 6916.11 546.333 6916.11 613C6916.11 645 6914.44 673.333 6911.11 698C6908.44 722.667 6901.11 748 6889.11 774C6877.78 799.333 6859.78 821 6835.11 839L6917.11 1083H6824.11L6751.11 869ZM6708.11 783C6742.78 783 6768.11 774 6784.11 756C6800.78 737.333 6811.11 716.667 6815.11 694C6819.11 670.667 6821.11 643.667 6821.11 613C6821.11 561 6810.11 525 6788.11 505C6766.78 484.333 6735.44 474 6694.11 474H6573.11V783H6708.11ZM7415.43 898C7415.43 965.333 7394.76 1015 7353.43 1047C7312.76 1078.33 7263.76 1094 7206.43 1094C7170.43 1094 7136.43 1087.67 7104.43 1075C7072.43 1061.67 7046.1 1040.33 7025.43 1011C7005.43 981.667 6995.43 944 6995.43 898V576C6995.43 507.333 7014.1 455.333 7051.43 420C7089.43 384.667 7141.43 367 7207.43 367C7273.43 367 7324.43 385.667 7360.43 423C7397.1 460.333 7415.43 511.667 7415.43 577V898ZM7324.43 597C7324.43 553 7315.1 519.667 7296.43 497C7278.43 474.333 7248.1 463 7205.43 463C7162.76 463 7132.1 474.333 7113.43 497C7095.43 519 7086.43 552 7086.43 596V885C7086.43 922.333 7096.76 951.333 7117.43 972C7138.76 992.667 7168.1 1003 7205.43 1003C7241.43 1003 7270.1 992.667 7291.43 972C7313.43 950.667 7324.43 921.333 7324.43 884V597ZM7559.26 383H7650.26V1000H7920.26V1083H7559.26V383Z" fill="url(#paint4_linear_21_244)"/>
<line x1="1988.85" y1="1235" x2="7913.52" y2="1235" stroke="#ACACAC" stroke-width="30"/>
<defs>
<linearGradient id="paint0_linear_21_244" x1="1560.95" y1="567.562" x2="1123.38" y2="295.803" gradientUnits="userSpaceOnUse">
<stop stop-color="#787878"/>
<stop offset="1" stop-color="#B1B1B1"/>
</linearGradient>
<linearGradient id="paint1_linear_21_244" x1="611.916" y1="1456.5" x2="1203.18" y2="1105.84" gradientUnits="userSpaceOnUse">
<stop offset="0.088581" stop-color="#787878"/>
<stop offset="1" stop-color="#B1B1B1"/>
</linearGradient>
<linearGradient id="paint2_linear_21_244" x1="918.487" y1="458.412" x2="708.043" y2="1233.19" gradientUnits="userSpaceOnUse">
<stop stop-color="#FFA564"/>
<stop offset="1" stop-color="#DC8554"/>
</linearGradient>
<linearGradient id="paint3_linear_21_244" x1="1337.54" y1="927.496" x2="1123.93" y2="1700.68" gradientUnits="userSpaceOnUse">
<stop stop-color="#FFA564"/>
<stop offset="1" stop-color="#DC8554"/>
</linearGradient>
<linearGradient id="paint4_linear_21_244" x1="4999" y1="119" x2="4999" y2="1251" gradientUnits="userSpaceOnUse">
<stop offset="0.0104167" stop-color="#FC8A49"/>
<stop offset="1" stop-color="#FF8E4E"/>
</linearGradient>
<clipPath id="clip0_21_244">
<rect width="1439" height="1443.26" fill="white" transform="translate(1791.36 263) rotate(90)"/>
</clipPath>
</defs>
</svg>
