<svg width="6054" height="727" viewBox="0 0 6054 727" fill="none" xmlns="http://www.w3.org/2000/svg">
<path d="M153 106H0V16H402V106H244V716H153V106ZM749.344 502C744.01 503.333 736.344 504 726.344 504H571.344V716H480.344V16H720.344C784.344 16 832.677 37.6666 865.344 80.9999C898.01 124.333 914.344 179.333 914.344 246C914.344 278 912.677 306.333 909.344 331C906.677 355.667 899.344 381 887.344 407C876.01 432.333 858.01 454 833.344 472L915.344 716H822.344L749.344 502ZM706.344 416C741.01 416 766.344 407 782.344 389C799.01 370.333 809.344 349.667 813.344 327C817.344 303.667 819.344 276.667 819.344 246C819.344 194 808.344 158 786.344 138C765.01 117.333 733.677 107 692.344 107H571.344V416H706.344ZM1322.8 511H1138.8L1085.8 716H984.797L1169.8 16H1288.8L1483.8 716H1377.8L1322.8 511ZM1160.8 416H1300.8L1228.8 166L1160.8 416ZM1572.14 15H1760.14C1835.47 15 1892.81 35.6666 1932.14 76.9999C1972.14 118.333 1992.14 173.333 1992.14 242V516C1992.14 649.333 1921.47 716 1780.14 716H1572.14V15ZM1901.14 232C1901.14 188.667 1889.14 156.667 1865.14 136C1841.81 115.333 1810.14 105 1770.14 105H1663.14V633H1764.14C1804.81 633 1837.81 626 1863.14 612C1888.47 598 1901.14 569.333 1901.14 526V232ZM2117.06 16H2451.06V106H2208.06V303H2364.06L2337.06 391H2208.06V634H2449.06V716H2117.06V16Z" fill="#727272"/>
<path d="M2930.91 693C2871.57 715 2816.24 726 2764.91 726C2706.91 726 2659.91 710.667 2623.91 680C2587.91 649.333 2569.91 600.333 2569.91 533V212C2569.91 161.333 2576.91 123 2590.91 97C2605.57 71 2627.57 48.9999 2656.91 30.9999C2686.24 14.3333 2722.24 5.99996 2764.91 5.99996C2816.91 5.99996 2863.91 17 2905.91 39L2879.91 117C2847.91 105 2813.57 99 2776.91 99C2744.91 99 2717.57 107.667 2694.91 125C2672.24 141.667 2660.91 167.667 2660.91 203V531C2660.91 599.667 2699.91 634 2777.91 634C2817.91 634 2863.91 625.667 2915.91 609L2930.91 693ZM3418.55 531C3418.55 598.333 3397.88 648 3356.55 680C3315.88 711.333 3266.88 727 3209.55 727C3173.55 727 3139.55 720.667 3107.55 708C3075.55 694.667 3049.21 673.333 3028.55 644C3008.55 614.667 2998.55 577 2998.55 531V209C2998.55 140.333 3017.21 88.3333 3054.55 53C3092.55 17.6666 3144.55 -2.0504e-05 3210.55 -2.0504e-05C3276.55 -2.0504e-05 3327.55 18.6666 3363.55 56C3400.21 93.3333 3418.55 144.667 3418.55 210V531ZM3327.55 230C3327.55 186 3318.21 152.667 3299.55 130C3281.55 107.333 3251.21 96 3208.55 96C3165.88 96 3135.21 107.333 3116.55 130C3098.55 152 3089.55 185 3089.55 229V518C3089.55 555.333 3099.88 584.333 3120.55 605C3141.88 625.667 3171.21 636 3208.55 636C3244.55 636 3273.21 625.667 3294.55 605C3316.55 583.667 3327.55 554.333 3327.55 517V230ZM3653.38 200V716H3562.38V16H3653.38L3962.38 530V16H4054.38V716H3962.38L3653.38 200ZM4287.77 106H4134.77V16H4536.77V106H4378.77V716H4287.77V106ZM4884.11 502C4878.78 503.333 4871.11 504 4861.11 504H4706.11V716H4615.11V16H4855.11C4919.11 16 4967.44 37.6666 5000.11 80.9999C5032.78 124.333 5049.11 179.333 5049.11 246C5049.11 278 5047.44 306.333 5044.11 331C5041.44 355.667 5034.11 381 5022.11 407C5010.78 432.333 4992.78 454 4968.11 472L5050.11 716H4957.11L4884.11 502ZM4841.11 416C4875.78 416 4901.11 407 4917.11 389C4933.78 370.333 4944.11 349.667 4948.11 327C4952.11 303.667 4954.11 276.667 4954.11 246C4954.11 194 4943.11 158 4921.11 138C4899.78 117.333 4868.44 107 4827.11 107H4706.11V416H4841.11ZM5548.43 531C5548.43 598.333 5527.76 648 5486.43 680C5445.76 711.333 5396.76 727 5339.43 727C5303.43 727 5269.43 720.667 5237.43 708C5205.43 694.667 5179.1 673.333 5158.43 644C5138.43 614.667 5128.43 577 5128.43 531V209C5128.43 140.333 5147.1 88.3333 5184.43 53C5222.43 17.6666 5274.43 -2.0504e-05 5340.43 -2.0504e-05C5406.43 -2.0504e-05 5457.43 18.6666 5493.43 56C5530.1 93.3333 5548.43 144.667 5548.43 210V531ZM5457.43 230C5457.43 186 5448.1 152.667 5429.43 130C5411.43 107.333 5381.1 96 5338.43 96C5295.76 96 5265.1 107.333 5246.43 130C5228.43 152 5219.43 185 5219.43 229V518C5219.43 555.333 5229.76 584.333 5250.43 605C5271.76 625.667 5301.1 636 5338.43 636C5374.43 636 5403.1 625.667 5424.43 605C5446.43 583.667 5457.43 554.333 5457.43 517V230ZM5692.26 16H5783.26V633H6053.26V716H5692.26V16Z" fill="url(#paint0_linear_26_266)"/>
<defs>
<linearGradient id="paint0_linear_26_266" x1="3132" y1="-248" x2="3132" y2="884" gradientUnits="userSpaceOnUse">
<stop offset="0.0104167" stop-color="#FC8A49"/>
<stop offset="1" stop-color="#FF8E4E"/>
</linearGradient>
</defs>
</svg>
