<svg width="1444" height="1439" viewBox="0 0 1444 1439" fill="none" xmlns="http://www.w3.org/2000/svg">
<mask id="mask0_501_84" style="mask-type:luminance" maskUnits="userSpaceOnUse" x="0" y="0" width="1444" height="1439">
<path d="M1443.26 1439V0L0 0V1439H1443.26Z" fill="white"/>
</mask>
<g mask="url(#mask0_501_84)">
<path d="M1272.08 249.831C1289.93 267.764 1298.4 288.88 1297.11 313.772C1296.32 328.939 1290.86 342.479 1282.87 355.226C1266.06 382.067 1249.46 409.044 1232.7 435.917C1225.62 447.266 1223.36 459.339 1226.82 472.322C1227.6 475.249 1228.87 478.059 1230.03 480.871C1236.83 497.343 1244.01 513.672 1250.41 530.299C1256.68 546.557 1267.91 556.445 1284.78 560.326C1315.35 567.362 1345.85 574.692 1376.44 581.636C1403.47 587.774 1423.74 602.47 1435.72 627.83C1440.8 638.589 1443.07 650.034 1443.06 661.962C1443.02 700.011 1443.14 738.06 1443.02 776.108C1442.91 814.579 1418.79 846.073 1381.55 855.385C1349.54 863.391 1317.3 870.491 1285.16 877.98C1284.27 878.187 1283.35 878.262 1282.06 878.457C1281.88 876.679 1281.59 875.122 1281.6 873.566C1281.88 798.591 1259.88 730.22 1220.13 667.311C1179.12 602.413 1124.53 551.418 1059.26 511.67C1002.5 477.107 941.346 453.574 876.603 439.162C845.696 432.282 814.41 428.012 782.915 424.994C770.811 423.834 758.822 421.446 746.714 420.349C706.291 416.688 666.723 421.328 628.238 434.202C565.304 455.255 514.822 493.226 476.485 547.471C475.695 548.59 474.865 549.681 473.393 551.683C473.393 549.396 473.135 548.127 473.429 547.005C492.857 473.046 524.105 404.806 571.609 344.561C613.773 291.089 664.501 248.027 726.176 218.594C766.774 199.22 809.411 187.297 854.454 185.114C868.221 184.447 882.054 185.035 895.853 185.275C898.046 185.313 900.315 186.338 902.382 187.275C906.844 189.298 911.107 191.776 915.613 193.685C931.131 200.26 946.895 206.28 962.232 213.247C978.781 220.764 994.267 219.921 1009.64 210.21C1036.58 193.187 1063.64 176.333 1090.77 159.606C1118.7 142.386 1147.32 141.277 1175.98 157.51C1182.8 161.376 1188.97 166.781 1194.6 172.337C1220.47 197.884 1246.04 223.734 1272.08 249.831Z" fill="#EB7D31"/>
<path d="M962.136 919.31C942.372 981.947 913.967 1039.53 874.082 1091.14C831.667 1146.03 780.185 1189.95 717.318 1219.76C669.2 1242.58 618.627 1254.81 565.165 1254.05C561.036 1253.99 557.736 1252.95 554.213 1250.54C548.071 1246.33 541.493 1242.57 534.674 1239.6C516.647 1231.76 498.331 1224.58 480.247 1216.86C463.012 1209.5 445.353 1207.58 427.456 1213.2C419.512 1215.69 411.756 1219.43 404.624 1223.77C375.806 1241.33 347.36 1259.5 318.538 1277.05C312.85 1280.51 306.305 1283.2 299.805 1284.56C281.715 1288.33 266.008 1282.83 252.895 1269.99C242.338 1259.65 231.996 1249.09 221.559 1238.63C204.164 1221.19 186.788 1203.73 169.366 1186.32C161.352 1178.31 155.941 1168.93 153.837 1157.72C151.238 1143.86 154.304 1131.19 161.664 1119.36C176.161 1096.05 190.607 1072.71 205.063 1049.38C209.264 1042.6 213.633 1035.92 217.567 1028.98C230.727 1005.79 231.887 981.878 221.545 957.3C213.906 939.144 206.376 920.942 198.948 902.699C188.887 877.99 171.251 861.545 145.451 854.99C115.737 847.44 85.7831 840.838 55.9306 833.835C51.3733 832.766 46.7938 831.791 42.2399 830.707C16.7688 824.649 0.748357 804.652 0.676445 778.428C0.568147 738.972 0.564549 699.516 0.679372 660.061C0.755406 633.945 16.2922 614.11 41.5471 608.05C75.0041 600.022 108.548 592.357 142.015 584.368C148.546 582.809 154.895 580.48 161.905 578.328C162.42 584.261 162.918 589.986 163.414 595.711C170.923 682.274 206.005 756.961 261.528 822.553C312.426 882.681 375.063 927.159 446.567 959.415C498.766 982.962 553.264 998.731 609.862 1007.12C625.831 1009.49 641.93 1010.96 657.949 1013.01C667.7 1014.25 677.378 1016.12 687.145 1017.17C767.431 1025.85 839.904 1005.86 904.337 957.065C928.439 938.814 948.96 916.992 966.422 892.284C967.484 890.78 968.639 889.342 970.994 888.341C968.093 898.483 965.193 908.626 962.136 919.31Z" fill="#EB7D31"/>
<path d="M188.572 574.971C188.436 571.98 188.304 569.635 188.248 567.289C188.074 559.933 189.399 553.337 193.439 546.649C198.23 538.719 200.878 529.496 204.527 520.864C209.826 508.332 214.979 495.732 220.568 483.33C232.351 457.177 231.177 431.759 216.27 407.296C198.81 378.645 180.994 350.213 163.28 321.719C159.041 314.9 155.272 307.901 153.891 299.882C150.803 281.941 155.662 266.34 168.296 253.382C182.707 238.603 197.403 224.103 211.979 209.485C225.23 196.196 238.443 182.869 251.751 169.638C271.25 150.254 295.548 147.205 319.022 161.606C347.59 179.132 375.975 196.959 404.378 214.754C415.875 221.957 428.073 226.819 441.72 228.022C454.371 229.138 466.478 227.247 478.146 222.465C497.859 214.385 517.596 206.354 537.167 197.941C562.735 186.95 577.863 167.26 584.049 140.277C591.546 107.579 599.13 74.9005 606.785 42.2392C611.64 21.5281 624.015 7.6752 644.662 1.90748C648.647 0.794349 652.978 0.555936 657.151 0.546904C699.792 0.454689 742.438 0.832419 785.075 0.370778C811.467 0.0850096 845.351 16.8553 858.169 51.6377C862.363 63.0153 864.645 75.1244 867.479 86.9765C872.715 108.879 877.722 130.838 882.794 152.78C883.151 154.323 883.255 155.925 883.532 157.893C881.304 158.021 879.475 158.236 877.65 158.216C805.873 157.415 739.905 177.542 678.786 214.378C613.936 253.462 562.354 306.243 521.745 369.952C478.943 437.102 451.54 510.319 437.856 588.67C433.824 611.756 431.488 635.141 428.407 658.394C426.743 670.949 424.752 683.477 423.599 696.081C420.421 730.816 423.897 765.033 433.226 798.573C452.444 867.671 491.581 922.842 549.655 964.621C551.137 965.687 552.491 966.931 553.473 969.094C543.634 966.244 533.745 963.555 523.964 960.518C466.02 942.527 411.963 916.578 362.821 880.749C307.427 840.362 262.328 790.804 230.148 729.893C209.902 691.57 196.557 650.954 190.96 607.918C189.57 597.23 189.363 586.388 188.572 574.971Z" fill="#EB7D31"/>
<path d="M811.142 1192.23C874.069 1141.98 921.209 1079.92 955.637 1007.88C980.895 955.035 998.015 899.59 1007.42 841.799C1010.5 822.825 1012.32 803.644 1014.82 784.571C1016.13 774.567 1017.96 764.626 1019.05 754.601C1028.04 671.182 1006.7 596.451 954.685 530.663C937.4 508.803 917.079 490.102 894.364 474.004C893.218 473.191 892.084 472.353 891.012 471.447C890.716 471.197 890.661 470.66 890.144 469.391C897.178 471.238 903.729 472.784 910.178 474.679C977.857 494.563 1040.39 524.714 1095.87 568.755C1147.85 610.013 1189.91 659.517 1219.34 719.35C1238.8 758.926 1250.96 800.7 1254.35 844.718C1255.64 861.523 1254.66 878.507 1254.61 895.409C1254.6 897.235 1254.19 899.173 1253.49 900.865C1245.56 920.176 1237.73 939.529 1229.49 958.708C1222.95 973.943 1223.95 988.378 1232.64 1002.38C1249.71 1029.9 1266.82 1057.39 1283.84 1084.94C1300.02 1111.11 1301.86 1138.2 1288.63 1166.12C1284.67 1174.48 1279.03 1181.68 1272.53 1188.2C1246.2 1214.62 1219.88 1241.06 1193.49 1267.42C1175.14 1285.74 1153.02 1294 1127.16 1291.75C1113.83 1290.58 1101.74 1285.77 1090.44 1278.7C1063.81 1262.05 1037 1245.68 1010.53 1228.77C994.468 1218.52 978.536 1217.51 961.254 1225.65C946.441 1232.63 931.215 1238.84 915.843 1244.48C898.18 1250.98 887.806 1263.02 883.721 1281.3C876.812 1312.21 869.493 1343.03 862.371 1373.89C854.449 1408.22 828.902 1432.24 794.432 1437.59C790.749 1438.16 786.966 1438.25 783.228 1438.26C765.654 1438.33 748.071 1438.63 730.511 1438.14C722.424 1437.91 714.384 1436.04 705.822 1434.84C705.153 1437.79 702.701 1438.42 699.342 1438.38C685.285 1438.19 671.224 1438.36 657.166 1438.28C634.621 1438.14 614.814 1423.45 608.333 1401.66C605.595 1392.45 603.642 1383 601.463 1373.63C595.513 1348.04 589.684 1322.42 583.683 1296.84C582.458 1291.62 580.697 1286.52 578.941 1280.55C666.109 1277.06 742.581 1245.68 811.142 1192.23Z" fill="#EB7D31"/>
</g>
</svg>
